# xmcd
#
# Track frame offsets:
#  150
#  19375
#  36252
#  53124
#  68227
#  89756
#  115143
#  130745
#  154974
#  176756
#  200656
#  212961
#
# Disc length: 3137 seconds
#
# Revision: 0
# Processed by: cddbd v1.5.2PL0 Copyright (c) Steve Scherf et al.
# Submitted via: Collectorz.com_Music_Collector 6.11
#
DISCID=b70c3f0c
DTITLE=INKWELL - These Stars Are Monsters
DYEAR=2006
DGENRE=
TTITLE0=Just Take The Money And Leave
TTITLE1=Equador Is Lovelythis Time Of Year
TTITLE2=Drop It
TTITLE3=No You Drop It
TTITLE4=The Tragedy Of David Gibble
TTITLE5=These Stars Are Monsters
TTITLE6=Jazzersize In A Tie
TTITLE7=This Ones For Kermit Washington
TTITLE8=Pink?... No No... What About Whimsical?
TTITLE9=I'm Winning The Race
TTITLE10=Why Can't Sometimes
TTITLE11=We Are The Captains Of The Sea
EXTD=
EXTT0=
EXTT1=
EXTT2=
EXTT3=
EXTT4=
EXTT5=
EXTT6=
EXTT7=
EXTT8=
EXTT9=
EXTT10=
EXTT11=
PLAYORDER=
